HIERARCHY
ROOT ui
{
	 OFFSET 0 0 0
	 CHANNELS 3 XPosition YPosition Z Position
	 EndSite
	 {
	 OFFSET 0 -1 0
	 }
}
ROOT li
{
	 OFFSET 0 0 0
	 CHANNELS 3 XPosition YPosition Z Position
	 EndSite
	 {
	 OFFSET 0 -1 0
	 }
}
ROOT ul
{
	 OFFSET 0 0 0
	 CHANNELS 3 XPosition YPosition Z Position
	 EndSite
	 {
	 OFFSET 0 -1 0
	 }
}
ROOT ll
{
	 OFFSET 0 0 0
	 CHANNELS 3 XPosition YPosition Z Position
	 EndSite
	 {
	 OFFSET 0 -1 0
	 }
}
ROOT tt
{
	 OFFSET 0 0 0
	 CHANNELS 3 XPosition YPosition Z Position
	 EndSite
	 {
	 OFFSET 0 -1 0
	 }
}
ROOT tb
{
	 OFFSET 0 0 0
	 CHANNELS 3 XPosition YPosition Z Position
	 EndSite
	 {
	 OFFSET 0 -1 0
	 }
}
ROOT td
{
	 OFFSET 0 0 0
	 CHANNELS 3 XPosition YPosition Z Position
	 EndSite
	 {
	 OFFSET 0 -1 0
	 }
}
ROOT v
{
	 OFFSET 0 0 0
	 CHANNELS 3 XPosition YPosition Z Position
	 EndSite
	 {
	 OFFSET 0 -1 0
	 }
}
ROOT bn
{
	 OFFSET 0 0 0
	 CHANNELS 3 XPosition YPosition Z Position
	 EndSite
	 {
	 OFFSET 0 -1 0
	 }
}
MOTION
Frames: 27
Frame Time: 0.002
0.005403945922851563	-5.452200174331665E-4	0		0.5474923095703125	-2.40562109375	0		-1.05565087890625	0.3414791259765625	0		-0.603080078125	-2.65109033203125	0		2.004530029296875	-0.0672965316772461	0		3.537134765625	0.344369140625	0		4.76751171875	0.41038287353515623	0		5.92428955078125	0.4780819702148438	0		-0.3684139404296875	5.88607861328125	0		
-0.04693000793457031	-0.0016425969600677491	0		0.5232619018554687	-2.402215576171875	0		-1.054960205078125	0.34142608642578126	0		-0.5524814453125	-2.658032470703125	0		2.044271240234375	-0.06502329254150391	0		3.527934326171875	0.3505294494628906	0		4.78232470703125	0.4171236267089844	0		5.9367802734375	0.46026165771484373	0		-0.35260781860351564	5.89476171875	0		
0.006821127891540527	-6.301789879798889E-4	0		0.53693212890625	-2.40648291015625	0		-1.1221568603515626	0.3465911560058594	0		-0.6084049682617187	-2.639061767578125	0		2.0012528076171874	-0.05026285171508789	0		3.5424921875	0.34126983642578124	0		4.773046875	0.4173016662597656	0		5.9409892578125	0.4774206848144531	0		-0.34998666381835936	5.89168310546875	0		
0.016752798080444335	0.009173133850097655	0		0.5350296020507812	-2.3884619140625	0		-1.044364013671875	0.348171630859375	0		-0.5305502319335937	-2.635477294921875	0		2.0271466064453123	-0.04272737121582031	0		3.550599853515625	0.3611382751464844	0		4.7837958984375	0.41713055419921874	0		5.92748046875	0.5074751586914062	0		-0.3512299194335938	5.8946806640625	0		
0.008362194061279297	-6.92658007144928E-4	0		0.5327491455078125	-2.393430908203125	0		-1.0846278076171876	0.3458660583496094	0		-0.5945687866210938	-2.625351806640625	0		2.013025146484375	-0.03747013854980469	0		3.52206640625	0.34366290283203127	0		4.78045458984375	0.41021856689453123	0		5.92434814453125	0.49037799072265625	0		-0.36565542602539064	5.88591845703125	0		
0.009179892539978028	-7.144880294799805E-4	0		0.5335889892578125	-2.393447998046875	0		-0.984989501953125	0.3350699157714844	0		-0.55876806640625	-2.6280029296875	0		2.017913818359375	-0.03354542922973633	0		3.525987548828125	0.3496190490722656	0		4.77714404296875	0.40331326293945313	0		5.92836962890625	0.47298406982421876	0		-0.36392791748046877	5.8838759765625	0		
0.006972447872161865	-0.003676642894744873	0		0.5246182250976562	-2.384282470703125	0		-1.0911121826171875	0.3379519958496094	0		-0.59860693359375	-2.6112958984375	0		2.0038511962890624	-0.028276721954345704	0		3.537560791015625	0.334441162109375	0		4.77798583984375	0.40334039306640623	0		5.92897216796875	0.47304989624023436	0		-0.3499239196777344	5.89562255859375	0		
0.010893254280090333	-7.412899732589721E-4	0		0.5373798828125	-2.39150146484375	0		-1.0861766357421876	0.34185992431640627	0		-0.581772705078125	-2.614596435546875	0		2.0462493896484375	-0.055014492034912106	0		3.5416923828125	0.3494049377441406	0		4.77885009765625	0.40337066650390624	0		5.93742236328125	0.4710513610839844	0		-0.3481247253417969	5.89459130859375	0		
0.01177547264099121	-7.464159727096557E-4	0		0.48064593505859377	-2.37047265625	0		-1.1172208251953124	0.3464156494140625	0		-0.57372900390625	-2.606732177734375	0		2.056362060546875	-0.042166286468505856	0		3.5441796875	0.3273948669433594	0		4.7797294921875	0.4034022521972656	0		5.92401806640625	0.5028734741210937	0		-0.34728790283203126	5.89458349609375	0		
0.01266172981262207	-7.454550266265869E-4	0		0.5235938110351562	-2.368217041015625	0		-1.0524892578125	0.3372713623046875	0		-0.5816290893554688	-2.595576416015625	0		2.027164306640625	-0.04661758041381836	0		3.553187255859375	0.33427450561523436	0		4.772365234375	0.38957785034179687	0		5.93592041015625	0.48342022705078125	0		-0.346438720703125	5.89458203125	0		
-0.03948762893676758	-0.0017939770221710204	0		0.5244816284179687	-2.36820703125	0		-1.091677734375	0.33398727416992186	0		-0.5797048950195313	-2.593589111328125	0		2.0778564453125	-0.05748965454101562	0		3.5368173828125	0.32060202026367185	0		4.7732412109375	0.389605712890625	0		5.932853515625	0.46633401489257814	0		-0.359779296875	5.88383935546875	0		
0.01134383487701416	-0.003668061971664429	0		0.5233070678710937	-2.370154541015625	0		-1.05482666015625	0.3333606262207031	0		-0.57680859375	-2.5916103515625	0		2.02782861328125	-0.050564163208007815	0		3.53356787109375	0.3146950988769531	0		4.76311767578125	0.39082406616210935	0		5.930955078125	0.5132022094726563	0		-0.49226568603515625	5.866224609375	0		
-0.03475069808959961	0.0011929980516433717	0		0.4763156433105469	-2.359277587890625	0		-1.111079345703125	0.32940283203125	0		-0.558006591796875	-2.592904296875	0		2.0285841064453125	-0.05454165267944336	0		3.54496630859375	0.2905225524902344	0		4.76978369140625	0.38173614501953124	0		5.92534228515625	0.5429114990234375	0		-0.3419546203613281	5.89159423828125	0		
0.025189985275268556	0.00917766284942627	0		0.5341034545898438	-2.35925830078125	0		-1.0651705322265625	0.3356419677734375	0		-0.5830286865234375	-2.581404296875	0		2.035532958984375	-0.04562279510498047	0		3.558147216796875	0.3123255920410156	0		4.775716796875	0.38966046142578126	0		5.9371767578125	0.523407470703125	0		-0.3411379699707031	5.8916318359375	0		
-0.03321270751953125	0.0012786359786987305	0		0.532799560546875	-2.36117724609375	0		-1.05245751953125	0.33348501586914064	0		-0.5710512084960937	-2.567549560546875	0		2.051189453125	-0.05085474395751953	0		3.5334384765625	0.2867986145019531	0		4.76823779296875	0.37681997680664064	0		5.9326298828125	0.5115259704589844	0		-0.3564878845214844	5.8839697265625	0		
0.014412043571472168	-0.0034961600303649904	0		0.5314281005859375	-2.364084228515625	0		-1.04991162109375	0.3245223388671875	0		-0.6043126220703126	-2.563876953125	0		2.0446796875	-0.0626852569580078	0		3.53901904296875	0.27973974609375	0		4.77378369140625	0.36775003051757815	0		5.92805078125	0.4996448364257812	0		-0.3689061279296875	5.87426806640625	0		
-0.03185181617736817	0.001415740966796875	0		0.5320593872070313	-2.364015625	0		-1.044340576171875	0.31952017211914063	0		-0.5568692626953125	-2.574632080078125	0		2.04533642578125	-0.0626331558227539	0		3.5445361328125	0.2716875	0		4.76344677734375	0.36796820068359376	0		5.9349765625	0.5045715026855468	0		-0.3540257568359375	5.883095703125	0		
0.015681305885314942	-0.003334465980529785	0		0.5346953125	-2.360970947265625	0		-1.1156954345703125	0.32190509033203124	0		-0.6529882202148437	-2.5568095703125	0		2.0179342041015627	-0.06307129287719726	0		3.531314208984375	0.2809794006347656	0		4.76579541015625	0.35296331787109375	0		5.9448505859375	0.5266795043945313	0		-0.33916473388671875	5.89293603515625	0		
0.02235594367980957	0.0026576080322265627	0		0.5393030395507813	-2.35694970703125	0		-1.038081298828125	0.32364492797851563	0		-0.5435070190429687	-2.560646484375	0		2.063423095703125	-0.0678008041381836	0		3.53433251953125	0.24998396301269532	0		4.7663681640625	0.3530000305175781	0		5.9395	0.5200426025390625	0		-0.3385174865722656	5.893041015625	0		
0.016775339126586915	-0.0031208128929138186	0		0.5377601318359375	-2.3588076171875	0		-1.0826690673828125	0.31757852172851564	0		-0.61088134765625	-2.55231103515625	0		2.02979248046875	-0.07610701751708984	0		3.552126953125	0.2647418212890625	0		4.74693798828125	0.3554039001464844	0		5.9371123046875	0.5323253784179688	0		-0.3520855712890625	5.8834111328125	0		
-0.029665473937988282	0.0018464139699935914	0		0.5283687133789062	-2.349510498046875	0		-1.054331787109375	0.30922219848632815	0		-0.5513760986328125	-2.549230712890625	0		2.0361453857421874	-0.08311515808105469	0		3.52714990234375	0.23926910400390625	0		4.75915283203125	0.34025030517578125	0		5.935392578125	0.5428667602539062	0		-0.3656788330078125	5.87479541015625	0		
0.01363292121887207	-0.005779841899871826	0		0.4778622741699219	-2.343464111328125	0		-1.1268670654296875	0.3116862182617188	0		-0.6388795776367188	-2.542506103515625	0		2.017595703125	-0.0816633529663086	0		3.527583984375	0.23935897827148436	0		4.7444658203125	0.33359164428710936	0		5.92831396484375	0.508674560546875	0		-0.35002081298828125	5.8826728515625	0		
0.02111618995666504	2.5083300471305845E-4	0		0.5409795532226562	-2.356440673828125	0		-1.089491455078125	0.31119723510742187	0		-0.58765576171875	-2.549252197265625	0		2.00893701171875	-0.08337432861328126	0		3.548423583984375	0.2090927734375	0		4.74970361328125	0.325590576171875	0		5.93365185546875	0.518955322265625	0		-0.333416259765625	5.89054736328125	0		
-0.0285389404296875	0.0023208110332489013	0		0.49550469970703126	-2.342451904296875	0		-1.1170379638671875	0.318887939453125	0		-0.6121367797851562	-2.53562353515625	0		2.0261802978515626	-0.08753370666503907	0		3.543871826171875	0.21630369567871094	0		4.75486474609375	0.3166073303222656	0		5.9347978515625	0.5467503051757813	0		-0.33399368286132813	5.891744140625	0		
0.02169046401977539	6.164240241050721E-4	0		0.5565914306640625	-2.350360107421875	0		-1.0569852294921875	0.3070211486816406	0		-0.592884521484375	-2.533763916015625	0		2.02334521484375	-0.09231555938720704	0		3.513812255859375	0.19898690795898438	0		4.75303564453125	0.31176885986328123	0		5.93635595703125	0.5399549560546875	0		-0.34783197021484374	5.88219384765625	0		
-0.028096895217895507	0.002725631952285767	0		0.5318035888671875	-2.34670751953125	0		-1.09278857421875	0.30789398193359374	0		-0.5778250732421875	-2.5388125	0		2.0222613525390627	-0.10711125946044922	0		3.51400146484375	0.19915028381347658	0		4.74222802734375	0.3121127014160156	0		5.9337138671875	0.55068115234375	0		-0.360759765625	5.87164599609375	0		
0.018937192916870117	-0.0018856530189514161	0		0.5318857421875	-2.346482421875	0		-1.069872314453125	0.2967293395996094	0		-0.61168603515625	-2.5349619140625	0		2.034407470703125	-0.10512193298339843	0		3.537826416015625	0.1829069366455078	0		4.74407568359375	0.2972481384277344	0		5.93173388671875	0.561416259765625	0		-0.3473721923828125	5.8826474609375	0		
